<svg data-v-423bf9ae="" xmlns="http://www.w3.org/2000/svg" viewBox="0 0 554.1609058283531 60" class="font"><!----><!----><defs data-v-423bf9ae=""><linearGradient data-v-423bf9ae="" gradientTransform="rotate(25)" id="b9a622bb-8842-4fb5-bf71-0592525c6ea7" x1="0%" y1="0%" x2="100%" y2="0%"><stop data-v-423bf9ae="" offset="0%" style="stop-color: rgb(65, 226, 150); stop-opacity: 1;"></stop><stop data-v-423bf9ae="" offset="100%" style="stop-color: rgb(0, 196, 238); stop-opacity: 1;"></stop></linearGradient></defs><g data-v-423bf9ae="" id="fb157d27-4658-4c95-8ea8-88500ea036ba" fill="url(#b9a622bb-8842-4fb5-bf71-0592525c6ea7)" transform="matrix(4.597701072692871,0,0,4.597701072692871,-0.7356394529342651,-11.632184982299805)"><path d="M8.40 4.60L5.28 4.60L5.28 12.67L3.27 12.67L3.27 4.60L0.16 4.60L0.16 3.04L8.40 3.04L8.40 4.60ZM11.24 12.81L11.24 12.81L11.24 12.81Q10.17 12.81 9.56 12.23L9.56 12.23L9.56 12.23Q8.96 11.64 8.96 10.58L8.96 10.58L8.96 10.58Q8.96 9.43 9.71 8.83L9.71 8.83L9.71 8.83Q10.46 8.23 11.88 8.22L11.88 8.22L13.47 8.19L13.47 7.81L13.47 7.81Q13.47 7.09 13.22 6.74L13.22 6.74L13.22 6.74Q12.97 6.38 12.39 6.38L12.39 6.38L12.39 6.38Q11.86 6.38 11.61 6.63L11.61 6.63L11.61 6.63Q11.36 6.87 11.30 7.43L11.30 7.43L9.30 7.33L9.30 7.33Q9.48 6.25 10.28 5.70L10.28 5.70L10.28 5.70Q11.09 5.14 12.48 5.14L12.48 5.14L12.48 5.14Q13.88 5.14 14.64 5.83L14.64 5.83L14.64 5.83Q15.39 6.52 15.39 7.79L15.39 7.79L15.39 10.49L15.39 10.49Q15.39 11.11 15.53 11.34L15.53 11.34L15.53 11.34Q15.67 11.58 16.00 11.58L16.00 11.58L16.00 11.58Q16.22 11.58 16.43 11.54L16.43 11.54L16.43 12.58L16.43 12.58Q16.26 12.62 16.12 12.65L16.12 12.65L16.12 12.65Q15.98 12.69 15.85 12.71L15.85 12.71L15.85 12.71Q15.71 12.73 15.56 12.74L15.56 12.74L15.56 12.74Q15.40 12.76 15.20 12.76L15.20 12.76L15.20 12.76Q14.47 12.76 14.13 12.40L14.13 12.40L14.13 12.40Q13.78 12.04 13.71 11.35L13.71 11.35L13.67 11.35L13.67 11.35Q12.87 12.81 11.24 12.81ZM13.47 9.63L13.47 9.25L12.49 9.26L12.49 9.26Q11.82 9.29 11.54 9.41L11.54 9.41L11.54 9.41Q11.26 9.53 11.11 9.78L11.11 9.78L11.11 9.78Q10.96 10.02 10.96 10.43L10.96 10.43L10.96 10.43Q10.96 10.96 11.21 11.21L11.21 11.21L11.21 11.21Q11.45 11.47 11.85 11.47L11.85 11.47L11.85 11.47Q12.30 11.47 12.68 11.22L12.68 11.22L12.68 11.22Q13.05 10.98 13.26 10.54L13.26 10.54L13.26 10.54Q13.47 10.11 13.47 9.63L13.47 9.63ZM24.32 8.95L24.32 8.95L24.32 8.95Q24.32 10.78 23.58 11.80L23.58 11.80L23.58 11.80Q22.85 12.81 21.48 12.81L21.48 12.81L21.48 12.81Q20.69 12.81 20.12 12.47L20.12 12.47L20.12 12.47Q19.54 12.13 19.24 11.48L19.24 11.48L19.22 11.48L19.22 11.48Q19.22 11.72 19.19 12.14L19.19 12.14L19.19 12.14Q19.16 12.56 19.13 12.67L19.13 12.67L17.26 12.67L17.26 12.67Q17.32 12.04 17.32 10.99L17.32 10.99L17.32 2.53L19.24 2.53L19.24 5.36L19.21 6.56L19.24 6.56L19.24 6.56Q19.89 5.14 21.60 5.14L21.60 5.14L21.60 5.14Q22.91 5.14 23.61 6.14L23.61 6.14L23.61 6.14Q24.32 7.13 24.32 8.95ZM22.31 8.95L22.31 8.95L22.31 8.95Q22.31 7.69 21.94 7.08L21.94 7.08L21.94 7.08Q21.57 6.47 20.80 6.47L20.80 6.47L20.80 6.47Q20.02 6.47 19.62 7.13L19.62 7.13L19.62 7.13Q19.21 7.78 19.21 9.01L19.21 9.01L19.21 9.01Q19.21 10.19 19.61 10.84L19.61 10.84L19.61 10.84Q20.01 11.50 20.79 11.50L20.79 11.50L20.79 11.50Q22.31 11.50 22.31 8.95ZM32.10 10.51L32.10 10.51L32.10 10.51Q32.10 11.59 31.22 12.20L31.22 12.20L31.22 12.20Q30.34 12.81 28.79 12.81L28.79 12.81L28.79 12.81Q27.27 12.81 26.46 12.33L26.46 12.33L26.46 12.33Q25.65 11.85 25.38 10.83L25.38 10.83L27.07 10.58L27.07 10.58Q27.21 11.10 27.57 11.32L27.57 11.32L27.57 11.32Q27.92 11.54 28.79 11.54L28.79 11.54L28.79 11.54Q29.60 11.54 29.97 11.33L29.97 11.33L29.97 11.33Q30.34 11.13 30.34 10.69L30.34 10.69L30.34 10.69Q30.34 10.34 30.04 10.13L30.04 10.13L30.04 10.13Q29.74 9.92 29.03 9.78L29.03 9.78L29.03 9.78Q27.41 9.45 26.84 9.18L26.84 9.18L26.84 9.18Q26.27 8.90 25.97 8.46L25.97 8.46L25.97 8.46Q25.68 8.02 25.68 7.38L25.68 7.38L25.68 7.38Q25.68 6.32 26.49 5.73L26.49 5.73L26.49 5.73Q27.31 5.13 28.81 5.13L28.81 5.13L28.81 5.13Q30.13 5.13 30.93 5.65L30.93 5.65L30.93 5.65Q31.73 6.16 31.93 7.13L31.93 7.13L30.23 7.31L30.23 7.31Q30.15 6.86 29.83 6.63L29.83 6.63L29.83 6.63Q29.50 6.41 28.81 6.41L28.81 6.41L28.81 6.41Q28.12 6.41 27.78 6.59L27.78 6.59L27.78 6.59Q27.44 6.76 27.44 7.17L27.44 7.17L27.44 7.17Q27.44 7.49 27.70 7.68L27.70 7.68L27.70 7.68Q27.97 7.87 28.59 7.99L28.59 7.99L28.59 7.99Q29.46 8.17 30.13 8.36L30.13 8.36L30.13 8.36Q30.80 8.54 31.21 8.80L31.21 8.80L31.21 8.80Q31.62 9.06 31.86 9.47L31.86 9.47L31.86 9.47Q32.10 9.88 32.10 10.51ZM43.80 12.67L41.90 12.67L41.90 8.52L41.90 8.52Q41.90 6.58 40.78 6.58L40.78 6.58L40.78 6.58Q40.20 6.58 39.83 7.17L39.83 7.17L39.83 7.17Q39.46 7.77 39.46 8.71L39.46 8.71L39.46 12.67L37.54 12.67L37.54 6.93L37.54 6.93Q37.54 6.34 37.53 5.96L37.53 5.96L37.53 5.96Q37.51 5.58 37.49 5.28L37.49 5.28L39.32 5.28L39.32 5.28Q39.34 5.41 39.38 5.97L39.38 5.97L39.38 5.97Q39.41 6.54 39.41 6.75L39.41 6.75L39.44 6.75L39.44 6.75Q39.79 5.90 40.32 5.52L40.32 5.52L40.32 5.52Q40.85 5.13 41.59 5.13L41.59 5.13L41.59 5.13Q43.29 5.13 43.65 6.75L43.65 6.75L43.69 6.75L43.69 6.75Q44.06 5.89 44.59 5.51L44.59 5.51L44.59 5.51Q45.12 5.13 45.93 5.13L45.93 5.13L45.93 5.13Q47.01 5.13 47.58 5.87L47.58 5.87L47.58 5.87Q48.15 6.60 48.15 7.98L48.15 7.98L48.15 12.67L46.24 12.67L46.24 8.52L46.24 8.52Q46.24 6.58 45.12 6.58L45.12 6.58L45.12 6.58Q44.56 6.58 44.20 7.12L44.20 7.12L44.20 7.12Q43.84 7.66 43.80 8.62L43.80 8.62L43.80 12.67ZM51.70 12.81L51.70 12.81L51.70 12.81Q50.63 12.81 50.03 12.23L50.03 12.23L50.03 12.23Q49.42 11.64 49.42 10.58L49.42 10.58L49.42 10.58Q49.42 9.43 50.17 8.83L50.17 8.83L50.17 8.83Q50.92 8.23 52.34 8.22L52.34 8.22L53.94 8.19L53.94 7.81L53.94 7.81Q53.94 7.09 53.68 6.74L53.68 6.74L53.68 6.74Q53.43 6.38 52.86 6.38L52.86 6.38L52.86 6.38Q52.32 6.38 52.07 6.63L52.07 6.63L52.07 6.63Q51.82 6.87 51.76 7.43L51.76 7.43L49.76 7.33L49.76 7.33Q49.94 6.25 50.75 5.70L50.75 5.70L50.75 5.70Q51.55 5.14 52.94 5.14L52.94 5.14L52.94 5.14Q54.34 5.14 55.10 5.83L55.10 5.83L55.10 5.83Q55.86 6.52 55.86 7.79L55.86 7.79L55.86 10.49L55.86 10.49Q55.86 11.11 56.00 11.34L56.00 11.34L56.00 11.34Q56.14 11.58 56.46 11.58L56.46 11.58L56.46 11.58Q56.68 11.58 56.89 11.54L56.89 11.54L56.89 12.58L56.89 12.58Q56.72 12.62 56.58 12.65L56.58 12.65L56.58 12.65Q56.44 12.69 56.31 12.71L56.31 12.71L56.31 12.71Q56.17 12.73 56.02 12.74L56.02 12.74L56.02 12.74Q55.86 12.76 55.66 12.76L55.66 12.76L55.66 12.76Q54.93 12.76 54.59 12.40L54.59 12.40L54.59 12.40Q54.24 12.04 54.17 11.35L54.17 11.35L54.13 11.35L54.13 11.35Q53.33 12.81 51.70 12.81ZM53.94 9.63L53.94 9.25L52.95 9.26L52.95 9.26Q52.28 9.29 52.00 9.41L52.00 9.41L52.00 9.41Q51.72 9.53 51.57 9.78L51.57 9.78L51.57 9.78Q51.43 10.02 51.43 10.43L51.43 10.43L51.43 10.43Q51.43 10.96 51.67 11.21L51.67 11.21L51.67 11.21Q51.91 11.47 52.32 11.47L52.32 11.47L52.32 11.47Q52.77 11.47 53.14 11.22L53.14 11.22L53.14 11.22Q53.51 10.98 53.72 10.54L53.72 10.54L53.72 10.54Q53.94 10.11 53.94 9.63L53.94 9.63ZM64.60 12.67L62.50 12.67L60.53 9.32L59.70 9.90L59.70 12.67L57.78 12.67L57.78 2.53L59.70 2.53L59.70 8.34L62.34 5.28L64.40 5.28L61.80 8.16L64.60 12.67ZM68.59 12.81L68.59 12.81L68.59 12.81Q66.92 12.81 66.03 11.82L66.03 11.82L66.03 11.82Q65.13 10.83 65.13 8.94L65.13 8.94L65.13 8.94Q65.13 7.11 66.04 6.13L66.04 6.13L66.04 6.13Q66.95 5.14 68.62 5.14L68.62 5.14L68.62 5.14Q70.21 5.14 71.05 6.20L71.05 6.20L71.05 6.20Q71.89 7.25 71.89 9.29L71.89 9.29L71.89 9.34L67.15 9.34L67.15 9.34Q67.15 10.42 67.55 10.98L67.55 10.98L67.55 10.98Q67.95 11.53 68.69 11.53L68.69 11.53L68.69 11.53Q69.71 11.53 69.97 10.64L69.97 10.64L71.78 10.80L71.78 10.80Q71.00 12.81 68.59 12.81ZM68.59 6.35L68.59 6.35L68.59 6.35Q67.92 6.35 67.55 6.82L67.55 6.82L67.55 6.82Q67.18 7.29 67.16 8.14L67.16 8.14L70.03 8.14L70.03 8.14Q69.98 7.25 69.60 6.80L69.60 6.80L69.60 6.80Q69.23 6.35 68.59 6.35ZM75.27 12.67L73.35 12.67L73.35 7.01L73.35 7.01Q73.35 6.41 73.33 6.00L73.33 6.00L73.33 6.00Q73.32 5.59 73.29 5.28L73.29 5.28L75.13 5.28L75.13 5.28Q75.15 5.40 75.18 6.03L75.18 6.03L75.18 6.03Q75.22 6.65 75.22 6.86L75.22 6.86L75.24 6.86L75.24 6.86Q75.52 6.08 75.74 5.76L75.74 5.76L75.74 5.76Q75.96 5.44 76.26 5.29L76.26 5.29L76.26 5.29Q76.56 5.13 77.01 5.13L77.01 5.13L77.01 5.13Q77.38 5.13 77.61 5.24L77.61 5.24L77.61 6.84L77.61 6.84Q77.14 6.74 76.79 6.74L76.79 6.74L76.79 6.74Q76.07 6.74 75.67 7.32L75.67 7.32L75.67 7.32Q75.27 7.90 75.27 9.04L75.27 9.04L75.27 12.67ZM91.45 12.67L89.46 12.67L88.60 10.21L84.93 10.21L84.08 12.67L82.06 12.67L85.57 3.04L87.95 3.04L91.45 12.67ZM86.91 5.00L86.76 4.53L86.72 4.68L86.72 4.68Q86.65 4.92 86.56 5.24L86.56 5.24L86.56 5.24Q86.46 5.55 85.38 8.70L85.38 8.70L88.15 8.70L87.20 5.93L86.91 5.00ZM94.72 12.67L92.80 12.67L92.80 2.53L94.72 2.53L94.72 12.67ZM103.69 8.94L103.69 8.94L103.69 8.94Q103.69 10.79 102.95 11.80L102.95 11.80L102.95 11.80Q102.20 12.81 100.85 12.81L100.85 12.81L100.85 12.81Q100.07 12.81 99.49 12.47L99.49 12.47L99.49 12.47Q98.92 12.13 98.61 11.50L98.61 11.50L98.57 11.50L98.57 11.50Q98.61 11.70 98.61 12.74L98.61 12.74L98.61 15.58L96.69 15.58L96.69 6.98L96.69 6.98Q96.69 5.93 96.63 5.28L96.63 5.28L98.50 5.28L98.50 5.28Q98.53 5.40 98.56 5.76L98.56 5.76L98.56 5.76Q98.58 6.13 98.58 6.48L98.58 6.48L98.61 6.48L98.61 6.48Q99.26 5.12 100.97 5.12L100.97 5.12L100.97 5.12Q102.27 5.12 102.98 6.11L102.98 6.11L102.98 6.11Q103.69 7.11 103.69 8.94ZM101.68 8.94L101.68 8.94L101.68 8.94Q101.68 6.45 100.16 6.45L100.16 6.45L100.16 6.45Q99.39 6.45 98.99 7.12L98.99 7.12L98.99 7.12Q98.58 7.79 98.58 9.00L98.58 9.00L98.58 9.00Q98.58 10.19 98.99 10.85L98.99 10.85L98.99 10.85Q99.39 11.50 100.15 11.50L100.15 11.50L100.15 11.50Q101.68 11.50 101.68 8.94ZM107.11 6.75L107.13 6.75L107.13 6.75Q107.52 5.91 108.11 5.52L108.11 5.52L108.11 5.52Q108.70 5.14 109.51 5.14L109.51 5.14L109.51 5.14Q110.69 5.14 111.32 5.87L111.32 5.87L111.32 5.87Q111.95 6.59 111.95 7.98L111.95 7.98L111.95 12.67L110.03 12.67L110.03 8.53L110.03 8.53Q110.03 6.58 108.71 6.58L108.71 6.58L108.71 6.58Q108.01 6.58 107.59 7.18L107.59 7.18L107.59 7.18Q107.16 7.78 107.16 8.72L107.16 8.72L107.16 12.67L105.24 12.67L105.24 2.53L107.16 2.53L107.16 5.30L107.16 5.30Q107.16 6.04 107.11 6.75L107.11 6.75ZM115.50 12.81L115.50 12.81L115.50 12.81Q114.43 12.81 113.83 12.23L113.83 12.23L113.83 12.23Q113.22 11.64 113.22 10.58L113.22 10.58L113.22 10.58Q113.22 9.43 113.97 8.83L113.97 8.83L113.97 8.83Q114.72 8.23 116.14 8.22L116.14 8.22L117.74 8.19L117.74 7.81L117.74 7.81Q117.74 7.09 117.48 6.74L117.48 6.74L117.48 6.74Q117.23 6.38 116.66 6.38L116.66 6.38L116.66 6.38Q116.12 6.38 115.87 6.63L115.87 6.63L115.87 6.63Q115.62 6.87 115.56 7.43L115.56 7.43L113.56 7.33L113.56 7.33Q113.74 6.25 114.55 5.70L114.55 5.70L114.55 5.70Q115.35 5.14 116.74 5.14L116.74 5.14L116.74 5.14Q118.14 5.14 118.90 5.83L118.90 5.83L118.90 5.83Q119.66 6.52 119.66 7.79L119.66 7.79L119.66 10.49L119.66 10.49Q119.66 11.11 119.80 11.34L119.80 11.34L119.80 11.34Q119.94 11.58 120.26 11.58L120.26 11.58L120.26 11.58Q120.48 11.58 120.69 11.54L120.69 11.54L120.69 12.58L120.69 12.58Q120.52 12.62 120.38 12.65L120.38 12.65L120.38 12.65Q120.24 12.69 120.11 12.71L120.11 12.71L120.11 12.71Q119.97 12.73 119.82 12.74L119.82 12.74L119.82 12.74Q119.66 12.76 119.46 12.76L119.46 12.76L119.46 12.76Q118.73 12.76 118.39 12.40L118.39 12.40L118.39 12.40Q118.04 12.04 117.97 11.35L117.97 11.35L117.93 11.35L117.93 11.35Q117.13 12.81 115.50 12.81ZM117.74 9.63L117.74 9.25L116.75 9.26L116.75 9.26Q116.08 9.29 115.80 9.41L115.80 9.41L115.80 9.41Q115.52 9.53 115.37 9.78L115.37 9.78L115.37 9.78Q115.23 10.02 115.23 10.43L115.23 10.43L115.23 10.43Q115.23 10.96 115.47 11.21L115.47 11.21L115.47 11.21Q115.71 11.47 116.12 11.47L116.12 11.47L116.12 11.47Q116.57 11.47 116.94 11.22L116.94 11.22L116.94 11.22Q117.31 10.98 117.52 10.54L117.52 10.54L117.52 10.54Q117.74 10.11 117.74 9.63L117.74 9.63Z"></path></g><!----><!----></svg>