<svg data-v-423bf9ae="" xmlns="http://www.w3.org/2000/svg" viewBox="0 0 648 90" class="iconLeft"><!----><!----><!----><g data-v-423bf9ae="" id="62f10163-929f-44ba-afdc-68fc36427d68" fill="white" transform="matrix(4.70957612991333,0,0,4.70957612991333,120.10444641113281,-1.1067501306533813)"><path d="M8.41 3.70L8.41 3.70L0.45 3.70L0.43 3.70L0.22 3.70L0.22 6.09L0.28 6.09L0.45 6.09L1.04 6.09C1.22 6.09 1.32 5.99 1.36 5.82C1.37 5.74 1.40 5.54 1.43 5.24L3.49 5.24L3.49 12.43C3.32 12.46 3.18 12.49 3.08 12.50C2.98 12.52 2.91 12.54 2.87 12.54C2.83 12.54 2.80 12.56 2.79 12.56C2.55 12.61 2.44 12.75 2.44 12.99L2.44 13.82L3.49 13.82L5.38 13.82L6.44 13.82L6.44 12.99C6.44 12.75 6.31 12.61 6.08 12.56C6.06 12.56 6.03 12.54 5.99 12.54C5.95 12.54 5.88 12.52 5.78 12.50C5.68 12.49 5.54 12.46 5.38 12.43L5.38 5.25L7.43 5.25C7.46 5.56 7.49 5.74 7.50 5.82C7.55 5.99 7.66 6.09 7.84 6.09L8.41 6.09L8.58 6.09L8.64 6.09L8.64 3.70ZM15.13 12.54C15.12 12.54 15.06 12.53 14.98 12.52C14.90 12.50 14.76 12.47 14.60 12.45L14.60 9.27C14.60 8.86 14.55 8.48 14.43 8.15C14.32 7.81 14.13 7.52 13.90 7.27C13.68 7.03 13.40 6.83 13.08 6.69C12.74 6.55 12.36 6.48 11.94 6.48C10.78 6.48 9.79 6.87 8.96 7.63L9.28 8.18C9.34 8.26 9.39 8.34 9.48 8.40C9.56 8.46 9.67 8.48 9.79 8.48C9.93 8.48 10.05 8.46 10.16 8.39C10.28 8.32 10.40 8.26 10.54 8.18C10.68 8.09 10.85 8.02 11.03 7.95C11.21 7.88 11.45 7.85 11.73 7.85C12.12 7.85 12.42 7.97 12.61 8.20C12.81 8.44 12.92 8.79 12.92 9.28L12.92 9.70C12.11 9.70 11.41 9.77 10.86 9.91C10.32 10.05 9.88 10.23 9.55 10.44C9.21 10.65 8.97 10.89 8.83 11.16C8.69 11.42 8.62 11.70 8.62 11.97C8.62 12.29 8.68 12.57 8.78 12.81C8.88 13.05 9.03 13.26 9.21 13.43C9.39 13.59 9.62 13.71 9.87 13.79C10.12 13.87 10.40 13.92 10.71 13.92C10.96 13.92 11.20 13.89 11.41 13.85C11.62 13.80 11.82 13.75 12.00 13.66C12.18 13.58 12.38 13.48 12.54 13.36C12.73 13.23 12.89 13.09 13.08 12.92L13.23 13.43C13.27 13.58 13.34 13.69 13.44 13.73C13.54 13.79 13.66 13.80 13.83 13.80L14.42 13.80L14.60 13.80L15.48 13.80L15.48 12.98C15.48 12.74 15.37 12.60 15.13 12.54ZM12.92 11.96C12.80 12.08 12.67 12.19 12.54 12.29C12.42 12.39 12.29 12.46 12.17 12.53C12.04 12.60 11.89 12.66 11.73 12.68C11.58 12.71 11.42 12.73 11.24 12.73C10.95 12.73 10.72 12.66 10.54 12.53C10.36 12.40 10.28 12.18 10.28 11.87C10.28 11.72 10.32 11.56 10.40 11.44C10.49 11.31 10.63 11.20 10.84 11.10C11.05 11.00 11.33 10.92 11.66 10.85C12.00 10.78 12.42 10.75 12.92 10.75ZM23.21 8.61C23.09 8.16 22.90 7.77 22.67 7.46C22.43 7.15 22.15 6.92 21.83 6.76C21.50 6.59 21.14 6.52 20.75 6.52C20.27 6.52 19.85 6.61 19.49 6.79C19.12 6.97 18.80 7.21 18.52 7.52L18.52 3.42L16.80 3.42L15.68 3.42L15.68 4.24C15.68 4.48 15.79 4.62 16.03 4.68C16.04 4.68 16.09 4.69 16.13 4.69C16.17 4.69 16.25 4.72 16.37 4.73C16.48 4.75 16.63 4.77 16.80 4.80L16.80 11.28L16.80 13.52C18.12 13.79 19.28 13.92 20.31 13.92C20.79 13.92 21.21 13.83 21.59 13.64C21.97 13.45 22.30 13.19 22.57 12.85C22.83 12.52 23.04 12.12 23.18 11.66C23.32 11.20 23.41 10.70 23.41 10.16C23.41 9.58 23.34 9.06 23.21 8.61ZM21.50 11.26C21.42 11.56 21.29 11.82 21.15 12.01C21.01 12.21 20.83 12.36 20.62 12.46C20.41 12.56 20.19 12.60 19.92 12.60C19.46 12.60 18.98 12.56 18.52 12.47L18.52 8.74C18.75 8.46 18.98 8.25 19.24 8.09C19.49 7.94 19.80 7.87 20.16 7.87C20.38 7.87 20.58 7.91 20.76 7.99C20.94 8.08 21.10 8.20 21.22 8.39C21.35 8.57 21.45 8.81 21.52 9.10C21.59 9.39 21.62 9.74 21.62 10.16C21.62 10.58 21.59 10.95 21.50 11.26ZM39.87 4.96C40.11 4.90 40.22 4.76 40.22 4.52L40.22 3.70L39.17 3.70L37.74 3.70C37.66 3.70 37.59 3.71 37.53 3.71C37.48 3.71 37.42 3.72 37.37 3.74C37.31 3.75 37.27 3.79 37.23 3.84C37.18 3.88 37.16 3.93 37.11 4.00L34.12 9.60C34.03 9.76 33.96 9.91 33.89 10.08C33.82 10.25 33.77 10.40 33.70 10.57C33.63 10.40 33.56 10.23 33.49 10.08C33.42 9.93 33.36 9.77 33.28 9.62L30.25 4.00C30.21 3.93 30.17 3.88 30.13 3.84C30.09 3.79 30.06 3.75 30.00 3.74C29.96 3.72 29.89 3.71 29.83 3.71C29.78 3.71 29.69 3.70 29.61 3.70L28.20 3.70L27.13 3.70L27.13 4.52C27.13 4.76 27.24 4.90 27.48 4.96C27.50 4.96 27.52 4.96 27.57 4.97C27.61 4.97 27.68 5.00 27.78 5.01C27.87 5.03 28.03 5.05 28.20 5.08L28.20 12.43C28.03 12.46 27.87 12.49 27.78 12.50C27.68 12.52 27.61 12.53 27.57 12.54C27.52 12.56 27.50 12.56 27.48 12.56C27.24 12.61 27.13 12.75 27.13 12.99L27.13 13.82L28.20 13.82L29.85 13.82L31.11 13.82L31.11 12.99C31.11 12.75 31.00 12.61 30.76 12.56C30.73 12.56 30.44 12.52 29.85 12.43L29.85 7.28C29.85 7.15 29.85 7.01 29.83 6.87C29.82 6.73 29.82 6.58 29.81 6.43L32.90 12.18C32.97 12.31 33.07 12.42 33.18 12.49C33.29 12.56 33.42 12.60 33.57 12.60L33.82 12.60C33.98 12.60 34.10 12.56 34.22 12.49C34.33 12.42 34.43 12.31 34.50 12.18L37.55 6.44C37.53 6.59 37.52 6.75 37.52 6.89C37.52 7.03 37.51 7.15 37.51 7.28L37.51 12.43C36.93 12.52 36.62 12.56 36.60 12.56C36.36 12.61 36.25 12.75 36.25 12.99L36.25 13.82L37.51 13.82L39.17 13.82L40.22 13.82L40.22 12.99C40.22 12.75 40.11 12.61 39.87 12.56C39.86 12.56 39.83 12.54 39.79 12.54C39.75 12.54 39.68 12.52 39.58 12.50C39.48 12.49 39.34 12.46 39.17 12.43L39.17 5.08C39.34 5.05 39.48 5.03 39.58 5.01C39.68 5.00 39.75 4.97 39.79 4.97C39.83 4.97 39.86 4.96 39.87 4.96ZM47.19 12.54C47.18 12.54 47.12 12.53 47.04 12.52C46.96 12.50 46.82 12.47 46.66 12.45L46.66 9.27C46.66 8.86 46.61 8.48 46.49 8.15C46.38 7.81 46.19 7.52 45.96 7.27C45.74 7.03 45.46 6.83 45.14 6.69C44.80 6.55 44.42 6.48 44.00 6.48C42.84 6.48 41.85 6.87 41.02 7.63L41.34 8.18C41.40 8.26 41.45 8.34 41.54 8.40C41.62 8.46 41.73 8.48 41.85 8.48C41.99 8.48 42.11 8.46 42.22 8.39C42.34 8.32 42.46 8.26 42.60 8.18C42.74 8.09 42.91 8.02 43.09 7.95C43.27 7.88 43.51 7.85 43.79 7.85C44.18 7.85 44.48 7.97 44.67 8.20C44.87 8.44 44.98 8.79 44.98 9.28L44.98 9.70C44.17 9.70 43.47 9.77 42.92 9.91C42.38 10.05 41.94 10.23 41.61 10.44C41.27 10.65 41.03 10.89 40.89 11.16C40.75 11.42 40.68 11.70 40.68 11.97C40.68 12.29 40.74 12.57 40.84 12.81C40.94 13.05 41.09 13.26 41.27 13.43C41.45 13.59 41.68 13.71 41.93 13.79C42.18 13.87 42.46 13.92 42.77 13.92C43.02 13.92 43.26 13.89 43.47 13.85C43.68 13.80 43.88 13.75 44.06 13.66C44.24 13.58 44.44 13.48 44.60 13.36C44.79 13.23 44.95 13.09 45.14 12.92L45.29 13.43C45.33 13.58 45.40 13.69 45.50 13.73C45.60 13.79 45.72 13.80 45.89 13.80L46.48 13.80L46.66 13.80L47.54 13.80L47.54 12.98C47.54 12.74 47.43 12.60 47.19 12.54ZM44.98 11.96C44.86 12.08 44.73 12.19 44.60 12.29C44.48 12.39 44.35 12.46 44.23 12.53C44.10 12.60 43.95 12.66 43.79 12.68C43.64 12.71 43.48 12.73 43.30 12.73C43.01 12.73 42.78 12.66 42.60 12.53C42.42 12.40 42.34 12.18 42.34 11.87C42.34 11.72 42.38 11.56 42.46 11.44C42.55 11.31 42.69 11.20 42.90 11.10C43.11 11.00 43.39 10.92 43.72 10.85C44.06 10.78 44.48 10.75 44.98 10.75ZM55.68 12.56C55.65 12.56 55.59 12.54 55.54 12.53C55.48 12.52 55.38 12.52 55.24 12.50C55.10 12.49 54.95 12.46 54.80 12.43L53.35 10.33C53.28 10.22 53.20 10.12 53.13 10.02C53.06 9.93 52.98 9.86 52.88 9.79C52.98 9.73 53.06 9.66 53.14 9.58C53.23 9.49 53.31 9.39 53.40 9.30L54.46 8.01C54.60 7.99 54.71 7.97 54.84 7.95C54.96 7.94 55.06 7.92 55.12 7.91C55.17 7.90 55.20 7.90 55.23 7.90C55.47 7.84 55.58 7.70 55.58 7.46L55.58 6.64L55.58 6.64L54.04 6.64C54.00 6.64 53.96 6.64 53.90 6.65L53.90 6.64L52.18 6.64L52.18 7.46C52.18 7.70 52.29 7.84 52.53 7.90C52.54 7.90 52.58 7.91 52.65 7.92L51.66 9.14C51.59 9.23 51.52 9.30 51.45 9.32C51.38 9.35 51.28 9.37 51.17 9.37L50.85 9.37L50.85 3.42L49.13 3.42L48.06 3.42L48.06 4.24C48.06 4.48 48.17 4.62 48.41 4.68C48.43 4.68 48.45 4.69 48.50 4.69C48.54 4.69 48.61 4.72 48.71 4.73C48.80 4.75 48.96 4.77 49.13 4.80L49.13 12.43C48.96 12.46 48.80 12.49 48.71 12.50C48.61 12.52 48.54 12.54 48.50 12.54C48.45 12.54 48.43 12.56 48.41 12.56C48.17 12.61 48.06 12.75 48.06 12.99L48.06 13.82L49.13 13.82L50.85 13.82L51.91 13.82L51.91 12.99C51.91 12.75 51.80 12.61 51.56 12.56C51.55 12.56 51.52 12.54 51.48 12.54C51.44 12.53 51.37 12.52 51.27 12.50C51.17 12.49 51.02 12.46 50.85 12.43L50.85 10.53L51.24 10.53C51.38 10.53 51.49 10.54 51.56 10.57C51.63 10.60 51.70 10.67 51.77 10.78L53.59 13.51C53.66 13.62 53.75 13.71 53.84 13.75C53.94 13.79 54.05 13.82 54.19 13.82L54.96 13.82L55.75 13.82L56.03 13.82L56.03 12.99C56.03 12.75 55.92 12.61 55.68 12.56ZM59.53 6.52C59.00 6.52 58.49 6.62 58.07 6.80C57.65 6.99 57.29 7.24 56.99 7.56C56.70 7.88 56.46 8.26 56.31 8.69C56.15 9.13 56.07 9.58 56.07 10.07C56.07 10.70 56.15 11.26 56.34 11.73C56.52 12.21 56.77 12.61 57.09 12.94C57.41 13.26 57.78 13.51 58.21 13.68C58.65 13.85 59.09 13.92 59.60 13.92C59.85 13.92 60.12 13.90 60.38 13.86C60.65 13.82 60.91 13.76 61.18 13.68C61.43 13.59 61.68 13.47 61.92 13.31C62.16 13.16 62.37 12.96 62.57 12.74L62.06 12.11C62.02 12.05 61.99 12.03 61.94 12.00C61.88 11.97 61.81 11.96 61.74 11.96C61.63 11.96 61.53 11.98 61.42 12.05C61.31 12.12 61.17 12.18 61.01 12.26C60.86 12.35 60.69 12.42 60.48 12.49C60.28 12.56 60.05 12.59 59.77 12.59C59.19 12.59 58.74 12.42 58.39 12.07C58.04 11.72 57.85 11.19 57.79 10.44L62.23 10.44C62.31 10.44 62.37 10.44 62.43 10.42C62.48 10.39 62.52 10.36 62.55 10.30C62.58 10.26 62.59 10.19 62.61 10.11C62.62 10.02 62.64 9.90 62.64 9.77C62.64 9.25 62.55 8.81 62.40 8.40C62.24 7.99 62.03 7.66 61.75 7.38C61.47 7.10 61.15 6.87 60.77 6.73C60.40 6.59 59.98 6.52 59.53 6.52ZM59.56 7.76C59.81 7.76 60.03 7.81 60.23 7.90C60.42 7.98 60.58 8.09 60.70 8.25C60.83 8.40 60.93 8.57 60.98 8.76C61.04 8.96 61.08 9.17 61.08 9.39L57.83 9.39C57.92 8.88 58.10 8.47 58.38 8.19C58.66 7.91 59.05 7.76 59.56 7.76ZM67.87 6.51C67.44 6.51 67.06 6.64 66.71 6.89C66.36 7.14 66.07 7.49 65.81 7.94L65.70 7.07C65.67 6.92 65.63 6.80 65.56 6.73C65.49 6.66 65.38 6.64 65.20 6.64L64.18 6.64L64.18 6.64L63.13 6.64L63.13 7.46C63.13 7.70 63.24 7.84 63.48 7.90C63.59 7.91 63.57 7.91 64.18 8.02L64.18 12.43C63.57 12.54 63.59 12.54 63.48 12.56C63.24 12.61 63.13 12.75 63.13 12.99L63.13 13.82L64.18 13.82L65.91 13.82L65.91 13.82L66.96 13.82L66.96 12.99C66.96 12.75 66.85 12.61 66.61 12.56C66.50 12.54 66.51 12.54 65.91 12.43L65.91 9.35C66.09 8.97 66.30 8.67 66.56 8.47C66.81 8.27 67.12 8.18 67.48 8.18C67.68 8.18 67.84 8.20 67.97 8.23C68.10 8.26 68.18 8.27 68.25 8.27C68.33 8.27 68.40 8.25 68.45 8.22C68.49 8.19 68.52 8.13 68.53 8.05L68.75 6.75C68.52 6.58 68.22 6.51 67.87 6.51ZM83.02 12.74C82.95 12.71 82.68 12.60 82.25 12.42L78.82 3.70L76.89 3.70L73.47 12.42C73.04 12.60 72.77 12.71 72.70 12.74C72.52 12.82 72.42 12.94 72.42 13.10L72.42 13.82L72.91 13.82L74.02 13.82L74.24 13.82L74.38 13.82L75.84 13.82L75.84 13.10C75.84 12.94 75.74 12.82 75.56 12.74C75.53 12.73 75.43 12.70 75.28 12.63L75.32 12.54L75.84 11.10L79.87 11.10L80.37 12.47L80.43 12.63C80.28 12.70 80.18 12.73 80.15 12.74C79.97 12.82 79.87 12.94 79.87 13.10L79.87 13.82L81.34 13.82L81.47 13.82L81.70 13.82L82.80 13.82L83.29 13.82L83.29 13.10C83.29 12.94 83.20 12.81 83.02 12.74ZM77.48 6.64C77.53 6.48 77.60 6.31 77.66 6.10C77.71 5.89 77.78 5.67 77.85 5.43C77.92 5.67 77.98 5.91 78.05 6.10C78.12 6.30 78.18 6.47 78.23 6.62L79.39 9.77L76.33 9.77ZM87.32 12.56C87.30 12.56 87.28 12.56 87.23 12.54C87.19 12.53 87.12 12.52 87.02 12.50C86.93 12.49 86.77 12.46 86.60 12.43L86.60 3.42L84.88 3.42L83.82 3.42L83.82 4.24C83.82 4.48 83.93 4.62 84.17 4.68C84.18 4.68 84.21 4.69 84.25 4.69C84.29 4.69 84.36 4.72 84.46 4.73C84.56 4.75 84.71 4.77 84.88 4.80L84.88 12.43C84.71 12.46 84.56 12.49 84.46 12.50C84.36 12.52 84.29 12.53 84.25 12.54C84.21 12.56 84.18 12.56 84.17 12.56C83.93 12.61 83.82 12.75 83.82 12.99L83.82 13.82L84.88 13.82L86.60 13.82L87.67 13.82L87.67 12.99C87.67 12.75 87.56 12.61 87.32 12.56ZM95.56 8.61C95.44 8.16 95.26 7.77 95.02 7.46C94.78 7.15 94.50 6.92 94.18 6.75C93.86 6.58 93.49 6.51 93.10 6.51C92.60 6.51 92.16 6.61 91.78 6.82C91.41 7.03 91.08 7.28 90.79 7.62L90.65 6.96C90.62 6.85 90.58 6.78 90.50 6.72C90.41 6.66 90.31 6.64 90.20 6.64L89.15 6.64L88.09 6.64L88.09 7.46C88.09 7.70 88.20 7.84 88.44 7.90C88.45 7.90 88.48 7.91 88.52 7.91C88.56 7.91 88.63 7.94 88.73 7.95C88.83 7.97 88.98 7.99 89.15 8.02L89.15 14.77C88.98 14.80 88.83 14.84 88.73 14.85C88.63 14.87 88.56 14.88 88.52 14.88C88.48 14.88 88.45 14.90 88.44 14.90C88.20 14.95 88.09 15.11 88.09 15.34L88.09 16.16L89.15 16.16L90.87 16.16L91.94 16.16L91.94 15.34C91.94 15.11 91.83 14.95 91.59 14.90C91.57 14.90 91.55 14.90 91.50 14.88C91.46 14.87 91.39 14.87 91.29 14.85C91.20 14.84 91.06 14.80 90.87 14.77L90.87 13.22C91.10 13.44 91.36 13.61 91.64 13.73C91.92 13.86 92.26 13.92 92.67 13.92C93.14 13.92 93.58 13.83 93.95 13.64C94.33 13.44 94.65 13.19 94.92 12.85C95.19 12.52 95.40 12.12 95.54 11.66C95.68 11.20 95.76 10.70 95.76 10.16C95.76 9.58 95.69 9.07 95.56 8.61ZM93.86 11.26C93.77 11.56 93.65 11.82 93.51 12.01C93.35 12.21 93.18 12.36 92.97 12.46C92.76 12.56 92.53 12.60 92.26 12.60C91.99 12.60 91.74 12.56 91.52 12.46C91.29 12.36 91.07 12.19 90.87 11.96L90.87 8.74C91.10 8.46 91.34 8.25 91.59 8.09C91.84 7.94 92.15 7.87 92.51 7.87C92.74 7.87 92.93 7.91 93.11 7.99C93.30 8.08 93.45 8.22 93.58 8.40C93.70 8.58 93.80 8.81 93.87 9.10C93.94 9.39 93.97 9.76 93.97 10.18C93.97 10.60 93.94 10.95 93.86 11.26ZM104.27 12.56C104.26 12.56 104.23 12.56 104.19 12.54C104.15 12.53 104.08 12.52 103.98 12.50C103.88 12.49 103.74 12.46 103.57 12.43L103.57 9.24C103.57 8.83 103.50 8.48 103.40 8.15C103.29 7.81 103.14 7.52 102.94 7.28C102.73 7.04 102.49 6.85 102.19 6.72C101.88 6.59 101.54 6.52 101.15 6.52C100.70 6.52 100.30 6.61 99.96 6.78C99.62 6.94 99.32 7.15 99.04 7.42L99.04 3.42L97.31 3.42L96.25 3.42L96.25 4.24C96.25 4.48 96.36 4.62 96.60 4.68C96.61 4.68 96.64 4.69 96.68 4.69C96.73 4.69 96.80 4.72 96.89 4.73C96.99 4.75 97.15 4.77 97.31 4.80L97.31 12.43C97.15 12.46 96.99 12.49 96.89 12.50C96.80 12.52 96.73 12.54 96.68 12.54C96.64 12.54 96.61 12.56 96.60 12.56C96.36 12.61 96.25 12.75 96.25 12.99L96.25 13.82L97.31 13.82L99.04 13.82L100.10 13.82L100.10 12.99C100.10 12.75 99.99 12.61 99.75 12.56C99.74 12.56 99.71 12.56 99.67 12.54C99.62 12.54 99.55 12.52 99.46 12.50C99.36 12.49 99.20 12.46 99.04 12.43L99.04 8.62C99.27 8.39 99.51 8.22 99.78 8.08C100.04 7.94 100.32 7.87 100.62 7.87C101.02 7.87 101.33 7.99 101.53 8.23C101.74 8.47 101.84 8.82 101.84 9.25L101.84 13.82L103.57 13.82L104.62 13.82L104.62 12.99C104.62 12.75 104.51 12.61 104.27 12.56ZM111.57 12.54C111.55 12.54 111.50 12.53 111.41 12.52C111.33 12.50 111.19 12.47 111.03 12.45L111.03 9.27C111.03 8.86 110.98 8.48 110.87 8.15C110.75 7.81 110.56 7.52 110.33 7.27C110.11 7.03 109.83 6.83 109.51 6.69C109.17 6.55 108.79 6.48 108.37 6.48C107.21 6.48 106.22 6.87 105.39 7.63L105.71 8.18C105.77 8.26 105.83 8.34 105.91 8.40C105.99 8.46 106.11 8.48 106.22 8.48C106.36 8.48 106.48 8.46 106.60 8.39C106.71 8.32 106.83 8.26 106.97 8.18C107.11 8.09 107.28 8.02 107.46 7.95C107.65 7.88 107.88 7.85 108.16 7.85C108.56 7.85 108.85 7.97 109.05 8.20C109.24 8.44 109.35 8.79 109.35 9.28L109.35 9.70C108.54 9.70 107.84 9.77 107.30 9.91C106.75 10.05 106.32 10.23 105.98 10.44C105.64 10.65 105.41 10.89 105.27 11.16C105.13 11.42 105.06 11.70 105.06 11.97C105.06 12.29 105.11 12.57 105.21 12.81C105.31 13.05 105.46 13.26 105.64 13.43C105.83 13.59 106.05 13.71 106.30 13.79C106.55 13.87 106.83 13.92 107.14 13.92C107.39 13.92 107.63 13.89 107.84 13.85C108.05 13.80 108.25 13.75 108.43 13.66C108.61 13.58 108.81 13.48 108.98 13.36C109.16 13.23 109.33 13.09 109.51 12.92L109.66 13.43C109.70 13.58 109.77 13.69 109.87 13.73C109.97 13.79 110.10 13.80 110.26 13.80L110.85 13.80L111.03 13.80L111.92 13.80L111.92 12.98C111.92 12.74 111.80 12.60 111.57 12.54ZM109.35 11.96C109.23 12.08 109.10 12.19 108.98 12.29C108.85 12.39 108.72 12.46 108.60 12.53C108.47 12.60 108.32 12.66 108.16 12.68C108.01 12.71 107.86 12.73 107.67 12.73C107.38 12.73 107.16 12.66 106.97 12.53C106.79 12.40 106.71 12.18 106.71 11.87C106.71 11.72 106.75 11.56 106.83 11.44C106.92 11.31 107.06 11.20 107.27 11.10C107.48 11.00 107.76 10.92 108.09 10.85C108.43 10.78 108.85 10.75 109.35 10.75Z"></path></g><!----><g data-v-423bf9ae="" id="bc2c6550-8dc2-47c1-b1a9-928f040cdbe7" transform="matrix(1.2601927518844604,0,0,1.2601927518844604,-11.008538246154785,-17.794584274291992)" stroke="none" fill="white"><circle cx="42.692" cy="80.595" r="3.888"></circle><path d="M47.234 63.9c-2.255-2.058-3.994-8.579 2.516-10.977 6.207-2.287 13.525 12.121 1.83 15.094-12.603 3.204-18.063-19.139-6.175-27.443 31.126-21.742-3.546-40.633-.124-9.834 5.776 42.406 6.482 41.893 6.698 47.784.15 4.093-2.425 7.332-6.77 6.417-1.409-.297.298-1.566.229-1.601-1.372-.686-3.016 1.147-4.117.915 8.69 4.803 11.756-1.338 11.507-5.946-.173-3.197-5.104-47.366-5.104-48.661 0-13.264 7.972-11.663 7.286-5.489S40.145 40.573 36.486 48.12s-2.884 17.575 8.462 21.269c11.238 3.659 21.758-9.148 16.269-16.009-8.306-10.382-24.013 2.744-13.983 10.52zM38.43 27.664H21.825a1.384 1.384 0 1 1 0-2.768H38.43a1.384 1.384 0 1 1 0 2.768zM77.175 27.664H63.337a1.384 1.384 0 1 1 0-2.768h13.837a1.384 1.384 0 0 1 .001 2.768zM34.279 40.117H14.906a1.384 1.384 0 1 1 0-2.768h19.372a1.384 1.384 0 0 1 .001 2.768z"></path><path d="M84.094 40.117H55.035a1.384 1.384 0 1 1 0-2.768h29.059a1.384 1.384 0 1 1 0 2.768zM27.36 52.571H10.755a1.384 1.384 0 1 1 0-2.768H27.36a1.384 1.384 0 1 1 0 2.768zM88.245 52.571H67.489a1.384 1.384 0 1 1 0-2.768h20.756a1.384 1.384 0 1 1 0 2.768zM30.128 65.025H16.29a1.384 1.384 0 1 1 0-2.768h13.837a1.384 1.384 0 0 1 .001 2.768zM84.094 65.025H67.489a1.384 1.384 0 1 1 0-2.768h16.605a1.384 1.384 0 1 1 0 2.768zM32.895 77.479h-9.686a1.384 1.384 0 1 1 0-2.768h9.686a1.384 1.384 0 1 1 0 2.768z"></path><g><path d="M75.791 77.479H60.57a1.384 1.384 0 1 1 0-2.768h15.221a1.384 1.384 0 1 1 0 2.768z"></path></g></g><!----></svg>